<?xml version="1.0" encoding="utf-8"?>
<!-- Generator: Adobe Illustrator 26.1.0, SVG Export Plug-In . SVG Version: 6.00 Build 0)  -->
<svg version="1.1" id="Слой_1" xmlns="http://www.w3.org/2000/svg" xmlns:xlink="http://www.w3.org/1999/xlink" x="0px" y="0px"
	 viewBox="0 0 24 24" style="enable-background:new 0 0 24 24;" xml:space="preserve">
<style type="text/css">
	.st0{fill:#0066CC;}
</style>
<g>
	<path class="st0" d="M12,17.5c-0.3,0-0.5-0.1-0.7-0.3L3.8,9.7c-0.4-0.4-0.4-1,0-1.4s1-0.4,1.4,0l7.5,7.5c0.4,0.4,0.4,1,0,1.4
		C12.5,17.4,12.3,17.5,12,17.5z"/>
</g>
<g>
	<path class="st0" d="M12,17.5c-0.3,0-0.5-0.1-0.7-0.3c-0.4-0.4-0.4-1,0-1.4l7.5-7.5c0.4-0.4,1-0.4,1.4,0s0.4,1,0,1.4l-7.5,7.5
		C12.5,17.4,12.3,17.5,12,17.5z"/>
</g>
</svg>
